<svg width="27" height="24" viewBox="0 0 27 24" fill="none" xmlns="http://www.w3.org/2000/svg">
<path fill-rule="evenodd" clip-rule="evenodd" d="M7.05996 2.66667L9.49996 0H17.5L19.94 2.66667H24.1666C25.6333 2.66667 26.8333 3.86667 26.8333 5.33333V21.3333C26.8333 22.8 25.6333 24 24.1666 24H2.83329C1.36663 24 0.166626 22.8 0.166626 21.3333V5.33333C0.166626 3.86667 1.36663 2.66667 2.83329 2.66667H7.05996ZM6.83329 13.3333C6.83329 17.0133 9.81996 20 13.5 20C17.18 20 20.1666 17.0133 20.1666 13.3333C20.1666 9.65333 17.18 6.66667 13.5 6.66667C9.81996 6.66667 6.83329 9.65333 6.83329 13.3333ZM17.5 13.3333C17.5 15.5425 15.7091 17.3333 13.5 17.3333C11.2908 17.3333 9.49996 15.5425 9.49996 13.3333C9.49996 11.1242 11.2908 9.33333 13.5 9.33333C15.7091 9.33333 17.5 11.1242 17.5 13.3333Z" fill="#D5D8D8"/>
</svg>
